<svg id="Capa_1" enable-background="new 0 0 512 512" height="512" viewBox="0 0 512 512" width="512" xmlns="http://www.w3.org/2000/svg"><g><path d="m437.02 74.98c-48.353-48.351-112.64-74.98-181.02-74.98s-132.667 26.629-181.02 74.98c-48.351 48.353-74.98 112.64-74.98 181.02s26.629 132.667 74.98 181.02c48.353 48.351 112.64 74.98 181.02 74.98s132.667-26.629 181.02-74.98c48.351-48.353 74.98-112.64 74.98-181.02s-26.629-132.667-74.98-181.02zm-181.02 417.02c-130.131 0-236-105.869-236-236s105.869-236 236-236 236 105.869 236 236-105.869 236-236 236z"/><path d="m256 44c-116.897 0-212 95.103-212 212s95.103 212 212 212 212-95.103 212-212-95.103-212-212-212zm156.096 222h35.647c-2.342 45.418-20.541 86.714-49.153 118.447l-10.999-10.999c-3.906-3.904-10.236-3.904-14.143 0-3.905 3.905-3.905 10.237 0 14.143l10.999 10.999c-31.732 28.613-73.028 46.812-118.447 49.153v-35.647c0-5.522-4.478-10-10-10s-10 4.478-10 10v35.647c-45.418-2.342-86.714-20.541-118.447-49.153l10.999-10.999c3.905-3.905 3.905-10.237 0-14.143-3.906-3.904-10.236-3.904-14.143 0l-10.999 10.999c-28.612-31.733-46.811-73.029-49.152-118.447h35.647c5.522 0 10-4.478 10-10s-4.478-10-10-10h-35.647c2.342-45.418 20.541-86.714 49.153-118.447l10.999 10.999c1.953 1.952 4.512 2.929 7.071 2.929s5.118-.977 7.071-2.929c3.905-3.905 3.905-10.237 0-14.143l-10.999-10.999c31.733-28.612 73.029-46.811 118.447-49.152v35.647c0 5.522 4.478 10 10 10s10-4.478 10-10v-35.647c45.418 2.342 86.714 20.541 118.447 49.153l-10.999 10.999c-3.905 3.905-3.905 10.237 0 14.143 1.953 1.952 4.512 2.929 7.071 2.929s5.118-.977 7.071-2.929l10.999-10.999c28.613 31.732 46.812 73.028 49.153 118.447h-35.647c-5.522 0-10 4.478-10 10s4.478 9.999 10.001 9.999z"/><path d="m345.276 153.771-133.63 52.2c-2.602 1.017-4.659 3.074-5.676 5.676l-52.2 133.63c-1.445 3.699-.564 7.902 2.243 10.71 1.911 1.911 4.469 2.929 7.073 2.929 1.223 0 2.455-.224 3.637-.686l133.63-52.2c2.602-1.017 4.659-3.074 5.676-5.676l52.2-133.63c1.445-3.699.564-7.902-2.243-10.71-2.807-2.809-7.01-3.689-10.71-2.243zm-56.281 135.224-108.292 42.302 42.302-108.292 108.292-42.302z"/></g></svg>